<svg xmlns="http://www.w3.org/2000/svg" width="368" height="368" viewBox="0 0 368 368">
  <defs>
    <style>
      .cls-1, .cls-2 {
        fill-rule: evenodd;
      }

      .cls-2 {
        fill: #fff;
      }
    </style>
  </defs>
  <path id="logo_arrow_bottom" data-name="logo arrow bottom" class="cls-1" d="M294,227s-9.483,27.412-18,37c-8.667,9.757-29.382,41.418-84,50H127V301c21.117,0.229,27.137,0,46,0,32.037,0,56.669-10.387,75-27,3.763-3.411,7.006-6.6,9.816-9.607C273.682,247.433,280,226,280,226Z"/>
  <path id="R" class="cls-2" d="M82,105.6s52.175-.095,72.155,0c37.953,0.181,70.042,13.42,74.56,62.519,4.816,52.343-48.1,69.466-48.1,69.466L240.74,314H181.814L128.9,239.9V314H82V105.6Zm46.9,35.891v61.361c9.381,0.242,28.861,0,28.861,0s15.328-.736,21.647-12.735a36.542,36.542,0,0,0-1.2-35.891c-8.266-13.459-20.444-12.735-20.444-12.735H128.9Z"/>
  <path id="logo_arrow_top" data-name="logo arrow top" class="cls-1" d="M144,70c33.62-.427,58.387.258,82,10,24.383,10.059,40.3,27.52,56,53,12.069,19.589,22.446,61.815,12,94-5,15.4-22.457,19.928-14-1,4.223-10.45,4.893-35.119,3-52-2.89-25.769-20.35-50.014-36-64-19.7-17.608-47.406-25.469-67-26-17.5-.474-23.717,0-36,0v47L57,77l87-48V70ZM130,52L83,79l47,28V52Z"/>
</svg>
