<svg xmlns="http://www.w3.org/2000/svg" width="864" height="285" viewBox="0 0 864 285">
  <defs>
    <style>
      .cls-1, .cls-2 {
        fill-rule: evenodd;
      }

      .cls-2 {
        fill: #fff;
      }
    </style>
  </defs>
  <path id="SO" class="cls-1" d="M559,157l-38.666-.018S518.215,145.273,504,144c-22.336-2-24.656,17.2-5,19,7.812,0.716,26.8,2.967,39,8,14.039,5.791,21.227,14.726,23,32,0.629,6.127-.6,16.711-5,21-20.649,20.107-55.021,18.186-71,16-29.417-4.025-44.872-25.722-45-45h40c-2.193,8.428,4.534,15.073,10,17,3.014,1.063,13.859,2.153,20,1,11.927-2.239,16.63-11.681,5-19-10.967-6.9-34.232-7.168-49-12-24.525-8.024-21.475-30.809-20-36a45.071,45.071,0,0,1,4-9C469.221,106.225,558.542,112.3,559,157Zm89-39c27.8,0.623,69.155,20.888,64,65-3.482,29.794-21.414,57.467-65,58-45.342.555-68.936-32.162-68-63C580.043,143.651,609.566,117.138,648,118Zm-1,32c-19.134-.14-27.87,8.857-29,29-1.037,18.494,7.944,32.5,28,32,20.549-.515,25.98-12.452,27-29C673.812,168.826,668.717,150.158,647,150Z"/>
  <path id="REU" class="cls-2" d="M3,58s43.386-.082,60,0c31.56,0.156,58.243,11.591,62,54,4,45.21-40,60-40,60l50,66H86L42,174v64H3V58ZM42,89v53c7.8,0.209,24,0,24,0s12.746-.636,18-11a32.625,32.625,0,0,0-1-31C76.126,88.375,66,89,66,89H42Zm234,95H185c-2.264,16.9,10.815,27.47,22,29,12.526,1.714,24.667-5.145,26-18h41s0.166,5.816-6,17c-5.9,10.7-19.828,21.7-33,26-48.743,15.9-105.292-20-91-73,9.1-33.733,53.345-59.48,97-41C263.042,133.331,276.431,151.848,276,184Zm143,54H379V225a50.176,50.176,0,0,1-15,12c-8.267,4.069-22.667,4.268-29,4-17.328-.733-31.78-18.363-33-30-3.44-32.813-3-90-3-90h40v72c2.629,8.442,4.515,17.018,19.761,15.942C373.806,204.189,373.547,198.8,377,191c1.287-2.907,1.558-15.381,2-21,1.358-17.26,0-48,0-48h40V238ZM185,166h53C238,137.575,185,135.815,185,166Z"/>
  <path id="arrow" class="cls-1" d="M708,41c33.62-.428,58.387.258,82,10,24.383,10.059,40.3,27.52,56,53,12.069,19.589,22.446,61.815,12,94-4.247,13.086-9.483,27.412-18,37-8.667,9.757-29.382,41.418-84,50H691V272c21.117,0.229,27.137,0,46,0,32.037,0,56.669-10.387,75-27,25.009-22.665,27.022-35.682,32-48,4.223-10.45,4.893-35.119,3-52-2.89-25.769-20.35-50.014-36-64-19.7-17.608-47.406-25.469-67-26-17.5-.474-23.717,0-36,0v47L621,48,708,0V41ZM694,23L647,50l47,28V23Z"/>
</svg>
